<svg width="17" height="21" viewBox="0 0 17 21" fill="none" xmlns="http://www.w3.org/2000/svg">
<path d="M9.22126 12.4911H7.86641V19.877H9.22126V12.4911Z" fill="white"/>
<path d="M12.3899 20.9276H4.6978C4.32364 20.9276 4.02039 20.6243 4.02039 20.2502C4.02039 19.876 4.32367 19.5728 4.6978 19.5728H12.3899C12.7641 19.5728 13.0673 19.8761 13.0673 20.2502C13.0673 20.6243 12.7641 20.9276 12.3899 20.9276Z" fill="white"/>
<path d="M8.54384 14.0131C8.38508 14.0131 8.22634 13.9575 8.0988 13.8464L0.71702 7.41401C0.504057 7.22842 0.428612 6.93018 0.527695 6.66565C0.626749 6.40112 0.87958 6.22586 1.16206 6.22586H15.9256C16.208 6.22586 16.4609 6.40115 16.56 6.66565C16.659 6.93018 16.5836 7.22842 16.3706 7.41401L8.98886 13.8464C8.86137 13.9575 8.70261 14.0131 8.54384 14.0131ZM2.97062 7.58071L8.54384 12.4372L14.117 7.58071H2.97062Z" fill="white"/>
<path d="M5.89934 8.67773H11.1884L8.54388 10.9821L5.89934 8.67773Z" fill="white"/>
<path d="M10.6619 7.52262C10.5419 7.52262 10.4214 7.48039 10.3247 7.39444C10.1149 7.20813 10.0958 6.88698 10.2822 6.67719L15.4843 0.819595C15.6706 0.609785 15.9918 0.590756 16.2015 0.777102C16.4114 0.963419 16.4304 1.28454 16.2441 1.49435L11.0419 7.35195C10.9415 7.46498 10.802 7.52262 10.6619 7.52262Z" fill="white"/>
<path d="M14.7689 4.56673C15.3551 3.98056 15.3551 3.03018 14.7689 2.444C14.1827 1.85783 13.2324 1.85783 12.6462 2.444C12.06 3.03018 12.06 3.98056 12.6462 4.56674C13.2323 5.15291 14.1827 5.15291 14.7689 4.56673Z" fill="white"/>
</svg>
