<svg width="26" height="18" viewBox="0 0 26 18" fill="none" xmlns="http://www.w3.org/2000/svg">
<path d="M9.7074 8.81966L12.824 11.8981L16.1484 8.75685L25.1512 0.338257H8.46076H1.25864L9.7074 8.81966ZM11.4388 1.90889C12.1314 1.90889 12.547 2.1602 12.824 2.47433C13.101 2.1602 13.5858 1.90889 14.2091 1.90889C15.1781 1.90889 16.0092 2.60061 16.0092 3.41671C16.0092 4.73604 14.4855 5.92971 13.0311 7.06056C12.9618 7.12339 12.8926 7.12339 12.7541 7.12339C12.6848 7.12339 12.5463 7.12339 12.477 7.06056C11.0226 5.92971 9.49894 4.67321 9.49894 3.41671C9.63814 2.59998 10.4 1.90889 11.4388 1.90889Z" fill="white"/>
<path d="M25.7738 16.7357V4.7361V0.903778L17.048 9.07106L25.7738 16.7357Z" fill="white"/>
<path d="M0.773804 0.966553V16.6729L8.87628 9.07102L0.773804 0.966553Z" fill="white"/>
<path d="M13.1003 12.7147C13.031 12.7776 12.8925 12.8404 12.8233 12.8404C12.6847 12.8404 12.6155 12.7769 12.5462 12.7147L9.42963 9.57349L1.2579 17.2382H25.1505L16.4939 9.57349L13.1003 12.7147Z" fill="white"/>
<rect x="9.00247" y="0.652405" width="7.54293" height="6.91078" rx="3.45539" fill="white"/>
</svg>
