<svg width="25" height="22" viewBox="0 0 25 22" fill="none" xmlns="http://www.w3.org/2000/svg">
<path d="M24.1937 18.8322C24.1257 18.6437 23.89 18.6437 23.8132 18.6437C23.379 18.6437 22.3605 18.8926 21.1402 19.2949C21.07 19.2533 20.9911 19.2226 20.9078 19.2028C19.7369 16.6231 19.226 15.2055 18.5089 12.5358C19.5384 12.0435 20.1962 11.3046 20.4626 10.3365C21.3551 7.10438 17.5485 2.42179 17.3851 2.22335L17.2328 2.03806L12.1292 3.86244L7.0256 2.03806L6.8743 2.22335C6.71205 2.4207 2.90217 7.09561 3.79679 10.3365C4.06428 11.3046 4.72106 12.0436 5.7516 12.5358C5.0346 15.2033 4.52366 16.6209 3.35273 19.2028C3.26831 19.2226 3.19048 19.2533 3.12029 19.2949C1.90003 18.8915 0.881483 18.6437 0.447334 18.6437C0.369507 18.6437 0.133794 18.6437 0.0668721 18.8322L0 19.0154L7.16479 21.5765L7.23057 21.3923C7.28322 21.2453 7.40601 20.9033 4.57517 19.8146C4.54666 19.7379 4.50611 19.6655 4.45347 19.5964C5.18366 16.8566 5.688 15.4357 6.82384 12.9195C7.93226 13.1903 8.91462 13.0325 9.72924 12.458C11.0887 11.4976 11.7784 9.54053 12.1292 7.77429C12.48 9.54053 13.1697 11.4976 14.5292 12.458C15.3449 13.0336 16.3272 13.1914 17.4346 12.9195C18.5704 15.4368 19.0747 16.8566 19.8049 19.5964C19.7523 19.6655 19.7117 19.7379 19.6832 19.8146C16.8535 20.9022 16.9752 21.2443 17.0278 21.3923L17.0936 21.5765L24.2584 19.0154L24.1937 18.8322ZM12.4899 4.45993L17.0058 2.84607C17.327 3.26267 18.225 4.47857 18.9398 5.91045C18.5703 6.1648 17.9289 6.44547 16.3425 5.60345C14.6969 4.73074 13.2365 5.83589 12.6149 6.43561C12.5359 5.82494 12.4942 5.28882 12.4734 4.9029C12.4822 4.72197 12.4866 4.57176 12.4899 4.45993ZM11.6917 6.03324C11.3793 6.55731 10.7215 7.01778 9.37182 6.12425C7.7547 5.05201 6.36996 5.22195 5.55753 5.45548C6.22194 4.22645 6.96745 3.21667 7.25363 2.84503L11.7696 4.45889C11.7717 4.57072 11.7761 4.71983 11.7849 4.89963C11.7685 5.19889 11.74 5.58813 11.6917 6.03324Z" fill="white"/>
<path d="M10.3728 2.47553C10.4496 2.55227 10.5493 2.58955 10.6491 2.58955C10.7488 2.58955 10.8486 2.55118 10.9254 2.47553C11.0778 2.32315 11.0778 2.07643 10.9254 1.92296L9.99786 0.995422C9.84548 0.843038 9.59876 0.843038 9.44529 0.995422C9.29181 1.1478 9.2929 1.39452 9.44529 1.548L10.3728 2.47553Z" fill="white"/>
<path d="M11.2104 1.75739C11.2565 1.93174 11.4144 2.04684 11.5876 2.04684C11.6216 2.04684 11.6555 2.04243 11.6895 2.03371C11.8978 1.97779 12.0217 1.76399 11.9658 1.55569L11.6259 0.289377C11.57 0.0810773 11.3551 -0.0417117 11.1479 0.0131146C10.9396 0.0690315 10.8157 0.282834 10.8717 0.491135L11.2104 1.75739Z" fill="white"/>
<path d="M12.5699 2.03369C12.6039 2.04247 12.6379 2.04683 12.6719 2.04683C12.844 2.04683 13.0019 1.93173 13.049 1.75738L13.3889 0.491073C13.4448 0.282773 13.321 0.0689704 13.1126 0.0130536C12.9054 -0.0417727 12.6905 0.0810162 12.6346 0.289316L12.2947 1.55562C12.2388 1.76397 12.3616 1.97778 12.5699 2.03369Z" fill="white"/>
<path d="M13.3341 2.47445C13.4108 2.55118 13.5106 2.58846 13.6103 2.58846C13.7101 2.58846 13.8099 2.55009 13.8866 2.47445L14.8141 1.54691C14.9665 1.39453 14.9665 1.14781 14.8141 0.994336C14.6618 0.840862 14.415 0.841952 14.2616 0.994336L13.334 1.92187C13.1806 2.07535 13.1806 2.32201 13.3341 2.47445Z" fill="white"/>
</svg>
