<svg width="15" height="21" viewBox="0 0 15 21" fill="none" xmlns="http://www.w3.org/2000/svg">
<path d="M7.49682 0.683258C5.51455 0.684872 3.61348 1.45125 2.20883 2.81502C0.804177 4.17878 0.0100872 6.0291 0 7.96184C0 10.8596 1.66737 13.2858 2.88927 15.0543L3.11201 15.3769C4.32771 17.0949 5.63189 18.7517 7.01952 20.341L7.50318 20.8933L7.98685 20.341C9.3743 18.7516 10.6785 17.0948 11.8944 15.3769L12.1171 15.0481C13.3326 13.2796 15 10.8596 15 7.96184C14.9899 6.02802 14.1949 4.17677 12.7889 2.81283C11.3829 1.44889 9.48019 0.683233 7.49682 0.683258ZM7.49682 11.2319C6.67112 11.2319 5.86397 10.9932 5.17742 10.5459C4.49088 10.0986 3.95579 9.4629 3.63981 8.71911C3.32383 7.97531 3.24115 7.15686 3.40224 6.36726C3.56332 5.57765 3.96093 4.85235 4.54479 4.28307C5.12865 3.71379 5.87252 3.32611 6.68235 3.16905C7.49219 3.01199 8.3316 3.0926 9.09444 3.40069C9.85729 3.70878 10.5093 4.23051 10.968 4.89991C11.4268 5.5693 11.6716 6.3563 11.6716 7.16138C11.6716 8.24095 11.2318 9.27631 10.4488 10.0397C9.66592 10.8031 8.60404 11.2319 7.49682 11.2319Z" fill="white"/>
<path d="M7.50004 9.34479C9.0712 9.34479 10.3449 8.15989 10.3449 6.69824C10.3449 5.2366 9.0712 4.0517 7.50004 4.0517C5.92888 4.0517 4.65521 5.2366 4.65521 6.69824C4.65521 8.15989 5.92888 9.34479 7.50004 9.34479Z" fill="white"/>
</svg>
