<svg width="27" height="20" viewBox="0 0 27 20" fill="none" xmlns="http://www.w3.org/2000/svg">
<path d="M13.4721 18.5175C8.66146 18.5175 4.74783 14.6037 4.74783 9.79319C4.74783 4.98254 8.66163 1.06891 13.4721 1.06891C18.2828 1.06891 22.1964 4.98271 22.1964 9.79319C22.1964 14.6037 18.2828 18.5175 13.4721 18.5175ZM13.4721 1.58084C8.9438 1.58084 5.25993 5.26487 5.25993 9.79302C5.25993 14.3212 8.94397 18.0052 13.4721 18.0052C18.0004 18.0052 21.6843 14.3212 21.6843 9.79302C21.6843 5.26487 18.0004 1.58084 13.4721 1.58084Z" fill="white"/>
<path d="M18.1293 14.4505C20.7017 11.8781 20.7017 7.70744 18.1293 5.13503C15.5569 2.56262 11.3862 2.56262 8.81378 5.13503C6.24137 7.70744 6.24137 11.8781 8.81377 14.4505C11.3862 17.0229 15.5569 17.0229 18.1293 14.4505Z" fill="white"/>
<path d="M26.5475 4.44548C26.5557 2.65826 25.6922 1.24913 24.5744 1.23787C24.0256 1.23531 23.5149 1.57893 23.1364 2.20539C22.7761 2.80182 22.5757 3.59096 22.5718 4.42739C22.5665 5.59736 22.9634 6.68779 23.5895 7.2412L23.5767 10.5048L23.575 10.505L23.5417 17.7563L23.5403 17.7867C23.5379 18.3061 23.9548 18.733 24.4694 18.7382H24.4747C24.9769 18.7405 25.3905 18.3461 25.417 17.8314L25.466 7.28472C26.1203 6.74753 26.5421 5.64789 26.5475 4.44548ZM24.9547 17.5315L24.006 17.527L24.0434 10.4669L24.9911 10.4713L24.9547 17.5315ZM25.0998 6.98037L25.0025 7.04933L24.9906 9.66957L24.0446 9.66513L24.055 7.01963L23.9645 6.94896C23.3957 6.50805 23.0313 5.51901 23.0362 4.42944C23.0431 2.94742 23.7465 1.69859 24.5722 1.70234L24.5753 1.61426C24.5761 1.61426 24.577 1.61426 24.5777 1.61426L24.5768 1.70251C25.4001 1.71087 26.0899 2.9662 26.0831 4.44378C26.0779 5.56271 25.6918 6.55874 25.0998 6.98037Z" fill="white"/>
<path d="M2.83685 1.09688C2.7358 0.716736 2.45022 0.469908 2.10591 0.468201C1.77237 0.468201 1.47791 0.70206 1.3376 1.07828C0.970933 2.061 0.863051 4.36442 0.836934 6.12348C0.821913 7.13811 0.831642 8.05494 0.842396 8.64556C0.864416 9.85343 0.864417 9.85343 0.990564 9.92461C1.10425 9.98897 1.19506 10.2249 1.23688 10.436L1.20172 17.8029L1.20052 17.8312C1.1983 18.3271 1.59603 18.7322 2.08731 18.7346H2.09175C2.56168 18.7346 2.95224 18.3611 2.98109 17.8739L3.01711 10.5603L3.01967 10.469C3.04169 9.66378 3.22519 2.55824 2.83685 1.09688ZM2.55332 10.9124L2.52481 17.5805L1.66056 17.5764L1.68992 10.9084L2.55332 10.9124ZM2.56697 10.2194L1.65697 10.2151C1.60696 10.0269 1.50915 9.76791 1.32735 9.60523C1.27597 8.34684 1.17355 2.83051 1.76759 1.23857C1.83928 1.04636 1.96884 0.927039 2.10591 0.927039V0.844424C2.10608 0.844424 2.10626 0.844424 2.10643 0.844424L2.10677 0.927039C2.23855 0.927722 2.34575 1.03527 2.39337 1.2145C2.681 2.29759 2.63969 7.29618 2.56697 10.2194Z" fill="white"/>
</svg>
