<svg width="32" height="38" viewBox="0 0 32 38" fill="none" xmlns="http://www.w3.org/2000/svg">
<rect y="-5" width="31.6304" height="48" rx="12" fill="#F6F6F6"/>
<path d="M14.3833 23.8767C15.7695 23.8767 17.0479 23.4285 18.0938 22.6814L22.0283 26.616C22.2109 26.7986 22.4517 26.8899 22.709 26.8899C23.2485 26.8899 23.6304 26.4749 23.6304 25.9436C23.6304 25.6946 23.5474 25.4539 23.3647 25.2795L19.4551 21.3616C20.2769 20.2825 20.7666 18.946 20.7666 17.4934C20.7666 13.9822 17.8945 11.1101 14.3833 11.1101C10.8804 11.1101 8 13.9739 8 17.4934C8 21.0046 10.8721 23.8767 14.3833 23.8767ZM14.3833 22.4988C11.644 22.4988 9.37793 20.2327 9.37793 17.4934C9.37793 14.7542 11.644 12.488 14.3833 12.488C17.1226 12.488 19.3887 14.7542 19.3887 17.4934C19.3887 20.2327 17.1226 22.4988 14.3833 22.4988Z" fill="#E10098" stroke="#E10098"/>
</svg>
