<?xml version="1.0" encoding="UTF-8" standalone="no"?>
<!-- Created with Inkscape (http://www.inkscape.org/) -->

<svg
   version="1.1"
   id="svg1"
   width="1270.8481"
   height="1279.1766"
   viewBox="0 0 1270.8481 1279.1766"
   sodipodi:docname="181c.svg"
   inkscape:version="1.3.2 (091e20ef0f, 2023-11-25)"
   xmlns:inkscape="http://www.inkscape.org/namespaces/inkscape"
   xmlns:sodipodi="http://sodipodi.sourceforge.net/DTD/sodipodi-0.dtd"
   xmlns="http://www.w3.org/2000/svg"
   xmlns:svg="http://www.w3.org/2000/svg">
  <defs
     id="defs1" />
  <sodipodi:namedview
     id="namedview1"
     pagecolor="#ffffff"
     bordercolor="#000000"
     borderopacity="0.25"
     inkscape:showpageshadow="2"
     inkscape:pageopacity="0.0"
     inkscape:pagecheckerboard="0"
     inkscape:deskcolor="#d1d1d1"
     showgrid="false"
     inkscape:zoom="0.62890625"
     inkscape:cx="636.02484"
     inkscape:cy="640"
     inkscape:window-width="1920"
     inkscape:window-height="1011"
     inkscape:window-x="0"
     inkscape:window-y="0"
     inkscape:window-maximized="1"
     inkscape:current-layer="layer2" />
  <g
     inkscape:groupmode="layer"
     id="layer2"
     inkscape:label="Layer 1">
    <path
       style="fill:#000000"
       d="m 614.5,1279.4024 c -124.68685,-3.3096 -235.17523,-13.2817 -304.35893,-27.4697 -45.50839,-9.3327 -85.42404,-24.3038 -98.29747,-36.8682 -6.11851,-5.9716 -7.53385,-9.1188 -5.96117,-13.2553 2.12521,-5.5897 14.52085,-11.6546 27.11757,-13.2679 3.025,-0.3874 9.55,-1.7924 14.5,-3.1221 4.95,-1.3298 10.41563,-2.4181 12.14585,-2.4185 1.73022,-4e-4 8.07718,-1.2824 14.10435,-2.8489 6.02717,-1.5665 12.27844,-2.6544 13.8917,-2.4177 1.94249,0.2851 3.76492,-0.2437 5.39566,-1.5657 1.35434,-1.0979 2.23744,-2.1881 1.96244,-2.4225 -0.275,-0.2345 -6.125,-4.2099 -13,-8.8343 C 141.59226,1070.4683 43.803185,923.10342 11.616822,757.45319 3.7285225,716.85529 0.62175244,683.10252 0.57574419,637.5 0.53994193,602.01348 1.3483121,587.57864 5.05585,557.5 23.480444,408.02435 96.719895,267.31093 208.96909,165.72579 309.23452,74.985911 430.38449,19.825616 564,4.0781195 598.43395,0.01984442 657.29649,-0.79937033 690.5,2.3175658 775.59431,10.305684 850.24762,31.859811 924.5,69.878745 1102.5567,161.0479 1228.0423,330.79314 1262.4306,527 c 6.6909,38.17556 9.0475,67.26852 8.9912,111 -0.049,38.05422 -1.2515,55.88785 -5.9981,88.95319 -17.2741,120.33282 -67.1213,229.72398 -148.0554,324.91171 -14.614,17.1877 -50.5993,53.0245 -68.8292,68.5451 -28.3121,24.1044 -64.17365,49.6229 -93.5391,66.5608 -6.875,3.9655 -12.89732,7.5891 -13.38294,8.0525 -0.48562,0.4634 2.43938,0.592 6.5,0.2857 5.92793,-0.4471 8.76248,-0.1232 14.38294,1.6436 5.47521,1.7211 10.96848,2.3842 25.21843,3.0438 23.21817,1.0748 27.90957,2.3315 34.94067,9.3601 11.9929,11.9888 6.2015,23.0726 -18.1591,34.7535 -38.97581,18.6889 -101.70902,28.0893 -226.5,33.9404 -21.15045,0.9917 -140.03782,1.9748 -163.5,1.352 z"
       id="path1"
       transform="translate(-0.57462425,-0.42068246)" />
    <path
       id="path2"
       style="fill:#ffff00"
       d="M 644.08634 19.428495 C 585.78225 18.677072 527.21078 26.145678 470.00041 41.920682 C 273.41056 96.127732 112.80283 248.26386 48.111734 441.55545 C 32.012112 489.65978 23.067154 533.25357 17.85978 589.00076 C 15.959752 609.34139 16.24808 667.28284 18.35978 689.50076 C 28.457246 795.73956 61.791765 890.65341 119.33244 977.00076 C 164.29692 1044.4759 222.79769 1103.1086 290.61369 1148.6726 C 315.74013 1165.5545 318.55173 1167.0052 326.059 1166.9637 C 329.60201 1166.9437 335.20041 1166.2761 338.50041 1165.4793 C 341.8004 1164.6825 348.42703 1164.025 353.22697 1164.0164 C 360.22008 1164.0034 363.29987 1163.4812 368.72697 1161.3855 C 372.65701 1159.8678 379.06815 1158.419 384.00041 1157.9344 C 389.33305 1157.4105 397.53091 1155.4793 406.00041 1152.7527 C 418.96549 1148.5788 419.57139 1148.262 421.31876 1144.7312 C 424.28463 1138.7383 424.4575 1131.6698 421.99455 1116.9656 C 419.22584 1100.436 419.61344 1094.6577 424.58244 1078.5008 C 427.99838 1067.3937 428.31971 1065.2679 428.88712 1049.9519 C 429.40105 1036.0795 429.8064 1032.9391 431.39298 1030.5203 L 433.28556 1027.6355 L 435.89298 1030.6687 C 437.3271 1032.3372 439.74225 1035.1711 441.26017 1036.9656 C 443.41974 1039.5187 444.50727 1040.08 446.26017 1039.5496 C 447.49225 1039.1768 450.43078 1038.6156 452.79142 1038.3015 C 456.37426 1037.8249 457.49249 1038.1141 459.559 1040.0554 L 462.03556 1042.3816 L 466.60783 1037.9402 C 469.12318 1035.4977 472.43456 1031.3322 473.96525 1028.6824 L 476.74845 1023.864 L 478.84806 1026.534 C 482.02021 1030.5667 482.4249 1035.0907 480.50041 1044.9988 C 479.54413 1049.9221 479.06998 1055.1804 479.44376 1056.7156 C 480.33932 1060.394 484.09619 1066.0422 490.94181 1074.0047 C 494.01766 1077.5825 497.5178 1082.0998 498.71916 1084.0437 L 500.90275 1087.5789 L 515.80119 1089.3445 C 554.33816 1093.9136 602.12914 1108.9915 621.25236 1122.614 C 623.86614 1124.476 626.19672 1126.0008 626.43205 1126.0008 C 626.66738 1126.0008 626.44141 1124.5405 625.93009 1122.7566 C 624.6039 1118.1324 624.83887 1110.4629 626.51994 1103.5008 C 629.53459 1091.0156 627.61546 1071.9457 622.11369 1059.7273 C 618.90518 1052.6018 615.62042 1037.612 614.50431 1025.0008 C 613.69739 1015.883 615.77125 1004.7724 619.45353 998.48904 C 622.99048 992.4537 630.01309 986.6116 636.75431 984.09646 C 639.91463 982.91735 647.45041 980.91918 653.50041 979.65506 C 666.55486 976.92738 667.38429 976.08414 666.434 966.50076 C 666.05514 962.68002 666.29004 959.41113 667.08048 957.50076 C 667.81378 955.72849 668.37204 949.38523 668.44572 942.00076 C 668.51952 934.60158 669.07264 928.33292 669.80119 926.64139 L 671.03166 923.78396 L 676.26603 928.15896 C 679.14463 930.56433 682.31848 933.16852 683.31876 933.94607 C 684.47064 934.84145 687.73984 935.38383 692.23478 935.42849 L 699.33244 935.50076 L 701.56095 930.45974 C 704.87188 922.97244 706.01705 922.39005 709.78361 926.27615 C 713.83436 930.45547 715.57535 935.56644 716.99259 947.43631 C 717.62511 952.73383 719.23113 960.2667 720.56095 964.17654 C 726.22386 980.82615 727.46006 995.13456 724.01994 1004.1883 C 722.93117 1007.0537 721.56795 1013.022 720.99064 1017.45 C 720.41333 1021.878 719.05517 1029.5508 717.97111 1034.5008 C 713.84116 1053.3588 709.85772 1080.0025 709.30119 1092.5008 C 708.70635 1105.8595 709.64051 1125.0008 710.88712 1125.0008 C 711.27263 1125.0008 714.49272 1121.0716 718.04337 1116.2703 C 728.71326 1101.842 741.85453 1086.0938 752.06291 1075.5008 C 757.36315 1070.0008 767.75453 1058.8754 775.15275 1050.7781 C 782.55097 1042.6809 791.50456 1033.7482 795.05119 1030.9285 C 803.7144 1024.0411 808.89706 1019.0199 810.45548 1016.0008 C 811.16525 1014.6258 812.278 1010.396 812.92814 1006.6023 C 814.40169 998.00388 816.28173 994.33634 823.74064 985.50076 C 833.89994 973.46637 835.87372 970.13328 839.09416 959.59256 C 840.78997 954.04202 842.83 948.47618 843.62736 947.22537 C 844.99291 945.08326 844.89053 944.85097 841.85197 943.22537 C 838.09029 941.21295 834.00041 937.51417 834.00041 936.12381 C 834.00041 935.59146 835.68791 934.6146 837.75041 933.95389 C 845.7402 931.39434 847.39255 929.4738 861.58048 906.27029 C 867.84789 896.02031 868.92926 894.78601 873.97306 892.12771 C 877.01241 890.52587 880.96291 888.90593 882.75041 888.5281 C 884.5379 888.15027 886.00041 887.47366 886.00041 887.0242 C 886.00041 886.57474 889.2193 882.67361 893.1547 878.35428 C 897.09011 874.03494 901.82946 868.13826 903.68595 865.25076 C 906.48356 860.89948 907.55877 860.00076 909.9633 860.00076 C 915.68182 860.00076 919.83704 870.71205 918.62345 882.32303 L 918.00236 888.2742 L 924.25041 887.6199 C 927.68733 887.25993 932.16785 886.70027 934.20548 886.37771 C 937.57377 885.8445 937.96792 886.02857 938.56095 888.39139 C 939.25976 891.17567 937.75662 894.74278 932.19376 903.50076 C 923.37049 917.39184 922.2045 929.54917 927.00236 957.61209 C 930.86986 980.23339 930.7442 984.69561 925.60392 1007.1902 C 923.63198 1015.8197 921.55477 1028.1947 920.98673 1034.6902 C 919.81147 1048.1292 914.22148 1071.7146 910.52189 1078.8465 C 909.19442 1081.4055 905.37417 1086.8758 902.03361 1091.0008 C 892.71643 1102.5058 891.05066 1106.5989 889.97501 1120.6277 C 889.41495 1127.9322 889.43175 1137.8879 890.01798 1146.5008 C 890.94321 1160.0949 891.04879 1160.5588 893.69181 1162.5008 C 895.18887 1163.6008 898.45898 1166.3208 900.95744 1168.5457 C 907.32722 1174.218 915.13433 1180.4777 917.50041 1181.8113 C 921.41789 1184.0192 924.72925 1182.8876 940.309 1174.0144 C 989.00181 1146.2825 1029.9352 1115.5132 1069.3676 1077.0008 C 1158.5916 989.85813 1218.4352 880.54893 1243.4731 758.98709 C 1252.0408 717.38983 1255.3416 683.5642 1255.3754 637.00076 C 1255.4014 601.17611 1254.6875 589.45295 1250.475 556.50076 C 1222.3616 336.58535 1072.8217 145.50434 864.18791 62.907011 C 793.56883 34.949186 719.04875 20.39461 644.08634 19.428495 z M 651.20939 1062.1043 C 649.75811 1062.1914 648.24128 1062.8088 646.75822 1063.9754 C 639.78891 1069.4575 634.12417 1090.096 633.30314 1113.0008 C 632.78152 1127.5527 632.87199 1128.6537 634.78166 1131.0008 C 636.6105 1133.2486 637.75928 1133.5585 646.15861 1134.075 C 662.0138 1135.0502 662.56697 1135.0374 664.43595 1133.6707 C 665.9206 1132.5851 666.04753 1131.9564 665.12736 1130.2371 C 664.50773 1129.0793 664.00041 1126.4708 664.00041 1124.4402 C 664.00041 1122.4095 662.59777 1116.0279 660.88322 1110.2605 C 658.31283 1101.6142 657.90667 1098.9612 658.56681 1095.1375 C 659.00715 1092.5869 659.39729 1085.7758 659.434 1080.0008 C 659.4903 1071.1458 659.17927 1068.9525 657.45158 1066.0008 C 655.86379 1063.2881 653.62819 1061.9591 651.20939 1062.1043 z M 692.38712 1063.4773 C 692.2024 1063.4506 692.02257 1063.4849 691.85783 1063.5867 C 689.0138 1065.3444 692.86235 1108.5909 696.23283 1112.7508 C 698.80072 1115.9201 699.29483 1113.7692 698.67033 1102.1551 C 697.93221 1088.4276 695.40698 1068.5407 693.97697 1065.1941 C 693.54708 1064.1881 692.94128 1063.5574 692.38712 1063.4773 z M 675.13712 1070.1258 C 674.78558 1070.0524 674.49171 1070.332 674.09611 1070.9344 C 673.57777 1071.7238 672.86235 1073.9738 672.50626 1075.9344 C 672.15019 1077.8951 670.70397 1081.9643 669.29337 1084.9754 C 666.91208 1090.0586 666.77385 1091.1313 667.35978 1099.9754 C 668.03794 1110.2115 672.17404 1129.0902 674.52384 1132.6765 C 675.82491 1134.6622 677.56785 1135.2294 684.25041 1135.8406 C 685.2129 1135.9286 686.92306 1135.0762 688.05119 1133.948 C 689.17933 1132.8199 689.88018 1131.1324 689.60978 1130.198 C 688.04465 1124.7897 686.92338 1119.4067 685.51798 1110.5691 C 684.64945 1105.1074 682.60225 1095.3464 680.96916 1088.8777 C 679.33607 1082.409 678.00041 1076.2759 678.00041 1075.2488 C 678.00041 1074.2218 677.33449 1072.5079 676.51994 1071.4402 C 675.89827 1070.6254 675.48867 1070.1992 675.13712 1070.1258 z M 860.82462 1121.0027 L 853.809 1130.2508 C 849.95006 1135.3377 845.03972 1141.317 842.89689 1143.5379 C 840.75406 1145.7587 839.00041 1147.8241 839.00041 1148.1277 C 839.00041 1148.4313 842.03791 1149.2462 845.75041 1149.9383 C 849.4629 1150.6303 855.42541 1152.2133 859.00041 1153.4558 C 867.2719 1156.3307 867.34361 1156.3388 866.53751 1154.2508 C 865.26785 1150.9621 863.14197 1140.508 862.51994 1134.5008 C 862.17823 1131.2008 861.6569 1126.8127 861.36173 1124.7508 L 860.82462 1121.0027 z "
       transform="translate(-0.57462425,-0.42068246)" />
    <path
       id="path3"
       style="display:inline;fill:#ffcc00"
       d="m 715.85587,34.178495 c -8.86232,0.315299 -18.67632,1.727018 -31.35546,4.304687 -22.28948,4.531452 -30.80916,4.710429 -53.13086,1.115235 -25.37513,-4.086987 -31.91352,-3.639892 -64.36914,4.40625 -23.37991,5.796162 -28.03061,6.491537 -56.7461,8.488281 -31.26996,2.17437 -35.18021,3.025093 -68.2539,14.828125 C 382.95124,88.393987 337.40354,114.0982 317.23673,137.73123 l -4.46289,5.23047 10.42969,-0.043 c 11.74676,-0.0483 15.10032,0.98858 16.84766,5.20703 1.03756,2.50489 0.83473,3.58959 -1.61133,8.61914 -3.74585,7.70214 -20.56717,24.47217 -43.93945,43.80274 -22.07505,18.25766 -32.24407,27.30197 -48.83399,43.42968 -15.24869,14.82386 -22.76679,23.58683 -36.90625,43.02344 -11.89131,16.34623 -20.75691,25.43939 -28.78906,29.52539 -4.84653,2.46545 -6.95332,2.85615 -18.4707,3.42969 -13.06802,0.65076 -17.0788,1.7246 -21.75,5.82031 -0.9625,0.84389 -1.75,1.21745 -1.75,0.83008 0,-0.38736 9.24363,-13.2636 20.54101,-28.61328 17.35974,-23.58659 22.0443,-29.26231 30.25,-36.65235 27.83694,-25.06989 31.78129,-30.55078 37.30859,-51.83984 1.71357,-6.59999 3.74202,-13.21598 4.50782,-14.70117 0.76579,-1.48519 1.39258,-2.95642 1.39258,-3.26953 0,-1.09099 -14.34909,15.11575 -31.84766,35.9707 -9.69115,11.54999 -22.58261,26.85001 -28.64844,34 -46.98301,55.38053 -75.013127,101.91099 -87.949217,146 -3.948128,13.45608 -8.547183,21.79874 -18.0625,32.76367 -12.327146,14.20513 -13.816157,17.52146 -14.302734,31.875 -0.507186,14.96148 1.368062,27.10631 8.472656,54.86133 3.026902,11.82499 6.821992,26.63436 8.433594,32.91016 1.6116,6.27579 4.054844,19.32581 5.427734,29 4.383011,30.88527 8.593351,49.66497 16.6875,74.43164 4.320734,13.22066 5.323683,15.45418 6.0625,13.5 0.87714,-2.32005 12.691567,-50.22982 24.744137,-100.3418 26.67203,-110.89647 53.07629,-172.46865 97.1875,-226.61914 14.05539,-17.25424 42.83688,-46.1729 44.39844,-44.61133 1.25765,1.25765 -13.90807,25.73908 -20.38672,32.91016 -1.92394,2.12957 -3.28859,4.08054 -3.0332,4.33594 0.65463,0.65462 11.4167,-5.94892 16.54883,-10.1543 2.36245,-1.93586 7.43897,-7.08693 11.28125,-11.44727 3.84226,-4.36032 6.98633,-7.70381 6.98633,-7.42968 0,0.73241 -19.21134,29.94218 -29.77149,45.26562 -5.02217,7.28749 -8.95368,13.25 -8.73633,13.25 0.70163,0 29.29703,-32.44348 40.69922,-46.17578 14.75283,-17.76764 15.02635,-18.00907 8.25195,-7.32422 -1.74354,2.75 -4.30156,7.25 -5.68359,10 -2.56837,5.11063 -8.00162,19.5 -7.36328,19.5 0.19446,0 3.16628,-3.63825 6.60547,-8.08398 15.72425,-20.32628 32.89791,-35.55937 48.49805,-43.01954 5.49999,-2.63015 13.65742,-7.08678 18.12695,-9.90429 8.02648,-5.05977 8.16883,-5.10581 11.58203,-3.67969 4.48845,1.8754 7.45367,5.73692 8.3125,10.82031 0.65882,3.89954 0.81909,4.04869 3.70898,3.47071 1.66075,-0.33215 4.08829,-0.60352 5.39454,-0.60352 h 2.375 V 284.1062 c 0,-16.0442 1.13655,-20.02876 11.88671,-41.64649 9.30845,-18.71855 13.84855,-25.9684 23.32618,-37.25585 15.73232,-18.73656 37.228,-33.2913 62.78711,-42.51172 5.22499,-1.88492 16.87096,-7.11854 25.88085,-11.63086 9.0099,-4.51234 20.93491,-9.72476 26.5,-11.58203 21.98457,-7.33706 46.38772,-6.62309 85.61915,2.50586 39.92775,9.29098 47.5907,11.27978 51.92968,13.47851 5.3733,2.72286 5.5316,3.15452 6.67578,18.03711 0.6751,8.78108 -1.14691,18.24371 -4.67968,24.30664 -1.05987,1.81894 -1.92578,3.47852 -1.92578,3.6875 0,0.84892 7.99999,-0.98297 15.89062,-3.63867 13.37551,-4.50172 16.68404,-4.63669 23.57227,-0.96094 5.09075,2.71658 6.80207,3.10547 13.67773,3.10547 5.03014,0 7.85938,0.39446 7.85938,1.0957 0,2.4725 -4.54422,7.14249 -12.95313,13.31446 -10.35067,7.59719 -12.7131,10.41929 -17.62695,21.05468 -3.18741,6.89873 -8.76397,25.48166 -7.91211,26.36524 0.60669,0.62928 7.56989,-7.38967 16.48828,-18.98633 15.10861,-19.64587 21.10655,-23.34037 37.50391,-23.10156 9.94189,0.1448 41.71602,5.83592 52.35742,9.37695 3.49688,1.16362 12.41215,5.23211 19.8125,9.04102 7.40034,3.80889 18.10707,8.72054 23.79101,10.91601 12.33082,4.7629 16.90967,7.89083 22.03907,15.05469 8.23578,11.5023 11.75752,15.82819 12.50976,15.36328 0.43082,-0.26626 1.27229,-3.30001 1.87109,-6.74023 1.4073,-8.08518 0.0231,-17.11758 -3.92578,-25.61719 -1.62573,-3.49925 -2.95507,-6.71658 -2.95507,-7.15039 0,-2.18418 19.91531,4.18438 64.5,20.625 30.07195,11.08905 62.74662,29.19377 72.73629,40.30469 3.0318,3.37211 6.0834,8.60432 9.2266,15.8125 8.2215,18.85444 10.2223,21.22106 28.1875,33.37304 16.1218,10.90501 21.6509,16.90988 29.375,31.89844 3.5429,6.87499 8.8723,15.425 11.8437,19 5.8823,7.07733 24.2205,26 25.1973,26 0.3326,0 1.3264,-2.5924 2.207,-5.75977 1.6554,-5.95414 5.0414,-11.81719 7.8223,-13.54492 4.2604,-2.64687 11.1163,2.46833 18.8477,14.06055 10.3736,15.55385 35.3769,70.49059 57.6855,126.74414 6.3253,15.94998 11.8793,29.9 12.3418,31 0.4928,1.17235 0.6265,-1.72444 0.3242,-7 -0.6068,-10.58827 0.5997,-20.06823 4.8262,-37.94336 3.5579,-15.04718 3.481,-19.52114 -0.6191,-36.38867 -1.3813,-5.68259 -3.8662,-18.48298 -5.5215,-28.44336 -7.0788,-42.59693 -18.2857,-80.18442 -31.2246,-104.72461 -15.1645,-28.76104 -19.7714,-38.24348 -20.3555,-41.89648 -0.5262,-3.29069 -1.6216,-4.72377 -6.7637,-8.84571 -8.1309,-6.51787 -15.4714,-15.6806 -26.6426,-33.25781 -12.3284,-19.39822 -17.2726,-25.27226 -31.4726,-37.39453 -31.9155,-27.24562 -52.993,-41.9643 -70.9531,-49.54492 -6.5625,-2.76988 -13.65,-6.17278 -15.75,-7.5625 -2.10005,-1.38972 -3.80946,-2.40897 -3.79886,-2.26367 0.0106,0.14531 2.65236,10.16563 5.87106,22.26562 3.2187,12.09999 5.7491,22.12263 5.6231,22.27344 -0.1259,0.15082 -8.2803,-2.01612 -18.12112,-4.81446 -43.86649,-12.47384 -51.85844,-17.31992 -87.27734,-52.9375 -27.33654,-27.48986 -31.51054,-32.11566 -36.57227,-40.52148 -4.25463,-7.06552 -4.56413,-11.19346 -1.08398,-14.46289 3.62528,-3.40577 10.80676,-4.87808 32.54102,-6.67578 10.72498,-0.88709 19.84633,-1.92509 20.26953,-2.30664 1.33031,-1.1994 -64.55422,-30.22016 -107.26953,-47.250002 -29.8968,-11.919327 -54.62393,-20.108811 -70.5,-23.349609 -8.87153,-1.810952 -16.78222,-2.592643 -25.64454,-2.277344 z m 184.07032,86.019535 c -1.79229,-0.1123 -2.07044,0.45274 -2.62305,2.4707 -1.54011,5.62397 -0.7715,12.66089 2.05273,18.8125 2.07435,4.51824 4.99596,8.13594 11.94532,14.78906 5.0597,4.84402 9.64922,9.26964 10.19922,9.83594 8.1072,8.34739 10.68112,10.38098 16.85546,13.32031 7.7421,3.68565 18.19702,7.007 28.57618,9.07617 10.78559,2.1502 10.31029,2.36326 9.5625,-4.25195 -1.92808,-17.05646 -6.75329,-27.68253 -17.40821,-38.33594 -7.8258,-7.8247 -15.96383,-13.04625 -27.26562,-17.49609 -6.48184,-2.5521 -22.0297,-6.71845 -29.53125,-7.91211 -1.00036,-0.15918 -1.76585,-0.27116 -2.36328,-0.30859 z m -316.42578,32.31836 c -33.64184,0.0201 -51.42478,2.10447 -77.23829,9.05273 -38.78701,10.44037 -61.24894,26.56652 -84.27148,60.50195 -4.12018,6.07317 -10.75326,15.18013 -14.74023,20.23633 -9.61277,12.19075 -11.75547,16.61133 -11.73047,24.19336 0.0266,8.06222 4.4319,20.11327 9.11523,24.93555 6.39568,6.58542 17.31818,10.66465 33.36524,12.46289 4.12499,0.46225 8.85,0.89895 10.5,0.96875 6.75448,0.28575 22.07727,-2.34554 40,-6.86719 10.44999,-2.63638 26.1035,-6.21895 34.7871,-7.96289 21.0702,-4.23155 25.17091,-5.66946 46.2129,-16.19727 22.4744,-11.24446 34.84708,-19.42357 44.61132,-29.49218 8.21791,-8.47408 11.01402,-13.17686 15.66211,-26.34766 1.64984,-4.67499 4.95359,-13 7.34375,-18.5 4.01353,-9.23546 4.34874,-10.6621 4.36524,-18.66016 0.0166,-8.03574 -0.2006,-8.97304 -3.01367,-13 -3.95913,-5.66754 -11.00904,-10.32176 -19.84766,-13.10156 -6.67386,-2.09897 -8.88205,-2.23835 -35.12109,-2.22265 z m 165.5,84.03515 c -13.31322,-0.0512 -13.5953,-0.005 -20.3086,3.27735 -9.65314,4.71989 -33.80767,24.80955 -35.23437,29.30468 -1.28626,4.05263 0.56049,8.72595 5.64843,14.29297 12.74923,13.94968 19.74341,16.46946 70.89454,25.54102 12.01287,2.13046 26.05227,0.54218 36,-4.07032 6.99405,-3.24294 22.56661,-12.50388 29.29687,-17.42382 2.49923,-1.82698 4.71131,-4.53061 5.58203,-6.81836 1.27914,-3.36082 1.25846,-4.37748 -0.19336,-8.97266 -2.09674,-6.63646 -6.65258,-12.12462 -12.53711,-15.10547 -5.02667,-2.54629 -42.01674,-14.13671 -56.64843,-17.75 -6.96743,-1.7206 -12.04887,-2.23519 -22.5,-2.27539 z M 998.434,367.00467 c -4.17003,0.008 -25.94508,3.77341 -31.69336,5.48047 -5.1258,1.52219 -17.50542,7.32297 -18.27148,8.5625 -0.25064,0.40554 2.35355,-0.14696 5.7871,-1.22852 9.22473,-2.90577 22.67258,-3.48145 32.14063,-1.375 9.51608,2.11713 23.11711,8.83906 31.10351,15.37109 l 6,4.90625 0.3086,-3.89062 c 0.8778,-11.0564 -14.4324,-27.84607 -25.375,-27.82617 z m -191.78125,13.11718 c -1.18425,-0.0163 -2.4059,0.0111 -3.66406,0.084 -4.98931,0.28882 -8.75011,1.06377 -10.39063,2.13867 -6.06422,3.97344 -8.74903,16.20582 -4.96289,22.61523 1.04598,1.7707 3.94679,4.14907 6.79102,5.56641 10.98199,5.47257 24.79905,2.29839 32.20312,-7.39844 4.86238,-6.36804 4.72115,-11.15319 -0.47656,-16.09765 -4.72689,-4.49659 -11.21023,-6.79441 -19.5,-6.90821 z m -471.79297,8.67774 c -5.7314,0.006 -12.97731,0.93618 -19.22656,2.63867 -13.64778,3.71807 -31.52895,10.70471 -36.96289,14.44336 -2.56503,1.7648 -8.60155,6.95206 -13.41602,11.52539 -4.81446,4.57334 -11.35484,9.77837 -14.5332,11.56641 -6.59574,3.71055 -10.15845,8.30031 -15.4082,19.85156 -1.91836,4.22106 -5.5862,12.17579 -8.1504,17.67578 -4.65808,9.99127 -4.66189,10.00917 -4.55859,20.5 0.0993,10.08494 0.60354,13.01379 6.64649,38.5 1.12873,4.76048 1.22335,4.21692 1.96093,-11.31836 1.05671,-22.25714 3.22684,-32.08779 10.80664,-48.95508 13.40112,-29.82143 14.40034,-31.56504 23.24414,-40.58984 16.22338,-16.5554 41.84471,-29.31977 63.73829,-31.75391 5.22499,-0.58092 11.075,-1.29237 13,-1.58203 3.42485,-0.51536 3.44632,-0.54754 1,-1.48437 -1.8078,-0.6923 -4.70179,-1.02143 -8.14063,-1.01758 z m 641.65625,9.20117 c -14.74031,0 -26.51562,5.96409 -26.51562,13.43164 0,7.40023 4.92446,14.91197 12.24609,18.67774 4.0559,2.08608 25.94707,8.2283 37.25391,10.45312 7.66179,1.50759 18.92809,1.15692 21.11519,-0.6582 0.859,-0.71296 1.3848,-3.15033 1.3848,-6.41797 0,-4.63969 -0.5149,-5.96543 -4.3203,-11.12695 -12.6417,-17.14636 -24.83193,-24.35938 -41.16407,-24.35938 z m -637.04687,2.34766 c -6.87904,-0.007 -13.94468,0.81646 -18.89844,2.47461 -13.79302,4.61687 -25.16713,11.82855 -37.68164,23.89257 -24.5904,23.70521 -34.88867,46.94692 -34.88867,78.73438 0,19.0064 4.2043,32.39262 13.26171,42.21875 2.2755,2.46863 5.73492,5.31278 7.6875,6.32031 3.55698,1.83538 8.6509,1.9442 26.72461,0.56641 7.87805,-0.60056 12.29221,-3.06637 31.82618,-17.77539 18.9792,-14.29128 27.56522,-22.41014 34.13085,-32.2793 2.19538,-3.3 6.16829,-9.15 8.83008,-13 7.0304,-10.1687 10.25668,-17.76101 12.11133,-28.5 4.73469,-27.41523 -5.78159,-52.38779 -25.32617,-60.13867 -4.20598,-1.668 -10.89831,-2.50629 -17.77734,-2.51367 z"
       transform="translate(-0.57462425,-0.42068246)" />
    <path
       id="path4"
       style="display:inline;fill:#806600"
       d="m 551.25431,79.842557 -2.32031,4.792969 c -6.28235,12.977613 0.33065,24.189664 16.79883,28.484374 9.27703,2.41935 22.93339,2.39464 32.52539,-0.0586 12.04733,-3.08119 20.90483,-8.60821 24.29297,-15.160159 1.79305,-3.467377 1.82267,-10.601037 0.0566,-13.787109 -1.40507,-2.534874 -1.96203,-2.165029 -2.94336,1.955078 -1.53647,6.450777 -12.5467,13.640569 -24.4668,15.97656 -19.20428,3.76347 -37.69121,-3.638827 -42.14844,-16.874998 z M 730.9672,130.53396 c -8.89661,-0.0459 -14.96679,2.62447 -14.96679,6.58399 0,3.99687 2.75758,9.26516 5.85546,11.1875 3.56593,2.21276 14.20594,2.23423 18.83594,0.0371 4.69032,-2.2257 5.96706,-5.20271 4.42969,-10.33399 -1.6048,-5.35635 -5.53328,-7.43015 -14.1543,-7.47461 z m 377.6055,182.68946 c -0.098,0.0112 -0.1724,0.0434 -0.2266,0.0977 -1.1455,1.14544 2.7683,15.31939 5.5938,20.25782 3.8224,6.68082 11.778,13.78647 22.1503,19.78125 20.4362,11.81122 24.0254,14.97973 29.709,26.24023 6.3708,12.62192 7.8392,19.26974 16.211,73.40039 4.8365,31.27157 7.3614,45.35319 10.582,59 2.6343,11.16229 6.0627,23.51908 7.2129,26 1.189,2.56447 1.3754,-44.81628 0.2285,-58 -4.7634,-54.75577 -22.6647,-99.51646 -53.7949,-134.5 -11.3241,-12.72579 -34.6418,-32.6242 -37.666,-32.27734 z m -972.14847,52.75586 c -1.46027,0.18774 -10.66045,9.60493 -15.0332,15.67773 -5.49727,7.63452 -11.2753,19.88716 -15.25391,32.34375 -5.42446,16.98343 -16.229896,55.27425 -18.201168,64.5 -4.486203,20.99589 -4.77359,43.08118 -0.787109,60.5 l 1.257812,5.5 0.802735,-8 c 0.441376,-4.4 1.525983,-13.38651 2.410156,-19.96875 3.311695,-24.65399 10.452174,-47.59895 22.416014,-72.03125 7.31307,-14.93461 9.64726,-22.23176 12.94922,-40.5 3.58301,-19.82313 4.90472,-25.01254 9.55469,-37.5 0.14394,-0.38655 0.0934,-0.5483 -0.11524,-0.52148 z"
       transform="translate(-0.57462425,-0.42068246)" />
  </g>
</svg>
